<?xml version="1.0" standalone="no"?>
<!DOCTYPE svg PUBLIC "-//W3C//DTD SVG 20010904//EN"
 "http://www.w3.org/TR/2001/REC-SVG-20010904/DTD/svg10.dtd">
<svg version="1.0" xmlns="http://www.w3.org/2000/svg"
 width="260.000000pt" height="260.000000pt" viewBox="0 0 260.000000 260.000000"
 preserveAspectRatio="xMidYMid meet">
<metadata>
Created by potrace 1.14, written by Peter Selinger 2001-2017
</metadata>
<g transform="translate(0.000000,260.000000) scale(0.100000,-0.100000)"
fill="#000000" stroke="none">
<path d="M0 1300 l0 -1300 1300 0 1300 0 0 1300 0 1300 -1300 0 -1300 0 0
-1300z m1028 638 l2 -328 330 0 330 0 0 299 c0 241 3 301 14 310 9 8 104 11
327 9 l314 -3 0 -330 0 -330 -312 -3 -313 -2 0 -255 0 -255 318 -2 317 -3 3
-448 2 -447 -332 2 -333 3 -3 277 -2 278 -340 0 -340 0 -2 -272 -3 -273 -305
0 -305 0 -3 424 c-1 304 1 428 9 437 9 11 69 14 305 14 l294 0 0 275 0 275
-312 2 -313 3 -3 324 c-2 232 1 328 9 337 10 12 68 14 328 12 l316 -3 3 -327z"/>
</g>
</svg>
